<svg width="41" height="41" viewBox="0 0 41 41" fill="none" xmlns="http://www.w3.org/2000/svg">
<path d="M11.6667 20.5C11.6667 15.5294 15.6962 11.5 20.6667 11.5C25.6373 11.5 29.6667 15.5294 29.6667 20.5V26.9286C29.6667 27.2271 29.6667 27.3764 29.6527 27.502C29.5351 28.5451 28.7118 29.3684 27.6687 29.4859C27.5431 29.5 27.3938 29.5 27.0953 29.5H20.6667C15.6962 29.5 11.6667 25.4706 11.6667 20.5Z" stroke="white"/>
<path d="M18.0417 23.5625C17.9037 23.5625 17.7917 23.4506 17.7917 23.3125C17.7917 23.1744 17.9037 23.0625 18.0417 23.0625C18.1798 23.0625 18.2917 23.1744 18.2917 23.3125C18.2917 23.4506 18.1798 23.5625 18.0417 23.5625Z" fill="black" stroke="white"/>
<path d="M21.0805 17.9928C21.2181 17.7143 21.6153 17.7143 21.7529 17.9928L21.939 18.3694C22.2548 19.0086 22.7123 19.5673 23.2766 20.003L23.6573 20.2969C23.8517 20.447 23.8517 20.7404 23.6573 20.8905L23.2766 21.1844C22.7123 21.6201 22.2548 22.1788 21.939 22.818L21.7529 23.1946C21.6153 23.4731 21.2181 23.4731 21.0805 23.1946L20.8944 22.818C20.5785 22.1788 20.121 21.6201 19.5567 21.1844L19.1761 20.8905C18.9817 20.7404 18.9817 20.447 19.1761 20.2969L19.5567 20.003C20.121 19.5673 20.5785 19.0086 20.8944 18.3694L21.0805 17.9928Z" stroke="white" stroke-linejoin="round"/>
</svg>
