<svg width="10" height="10" viewBox="0 0 10 10" fill="none" xmlns="http://www.w3.org/2000/svg">
<path d="M6.41 5L9.71 1.71C9.80324 1.61676 9.8772 1.50607 9.92766 1.38425C9.97812 1.26243 10.0041 1.13186 10.0041 1C10.0041 0.868143 9.97812 0.737575 9.92766 0.615753C9.8772 0.493931 9.80324 0.383241 9.71 0.290002C9.61676 0.196764 9.50607 0.122803 9.38425 0.0723429C9.26243 0.0218825 9.13186 -0.00408936 9 -0.00408936C8.86814 -0.00408936 8.73757 0.0218825 8.61575 0.0723429C8.49393 0.122803 8.38324 0.196764 8.29 0.290002L4.29 4.29C4.19627 4.38297 4.12188 4.49357 4.07111 4.61543C4.02034 4.73728 3.9942 4.86799 3.9942 5C3.9942 5.13201 4.02034 5.26272 4.07111 5.38458C4.12188 5.50644 4.19627 5.61704 4.29 5.71L8.29 9.71C8.38296 9.80373 8.49356 9.87813 8.61542 9.92889C8.73728 9.97966 8.86799 10.0058 9 10.0058C9.13201 10.0058 9.26272 9.97966 9.38458 9.92889C9.50644 9.87813 9.61704 9.80373 9.71 9.71C9.80373 9.61704 9.87812 9.50644 9.92889 9.38458C9.97966 9.26272 10.0058 9.13201 10.0058 9C10.0058 8.86799 9.97966 8.73728 9.92889 8.61543C9.87812 8.49357 9.80373 8.38297 9.71 8.29L6.41 5ZM1 2.38419e-06C0.734784 2.38419e-06 0.48043 0.105359 0.292893 0.292896C0.105357 0.480432 0 0.734786 0 1V9C0 9.26522 0.105357 9.51957 0.292893 9.70711C0.48043 9.89465 0.734784 10 1 10C1.26522 10 1.51957 9.89465 1.70711 9.70711C1.89464 9.51957 2 9.26522 2 9V1C2 0.734786 1.89464 0.480432 1.70711 0.292896C1.51957 0.105359 1.26522 2.38419e-06 1 2.38419e-06Z" fill="white"/>
</svg>
