<svg width="20" height="21" viewBox="0 0 20 21" fill="none" xmlns="http://www.w3.org/2000/svg">
<path d="M8.09033 7.16986C8.17971 7.16986 8.26846 7.14861 8.35096 7.10674L12.4103 5.02424C12.6103 4.92174 12.7335 4.71174 12.726 4.48486C12.7185 4.25799 12.5822 4.05674 12.376 3.96736L8.38408 2.23986C8.20783 2.16361 8.00471 2.18049 7.84346 2.28674C7.68158 2.39174 7.58346 2.57174 7.57971 2.76611L7.55783 4.00736C4.45096 5.05736 2.39033 7.98861 2.50346 11.2892C2.59346 13.9105 4.09221 16.3199 6.41596 17.5761C6.50283 17.623 6.59596 17.6449 6.68783 17.6449C6.89408 17.6449 7.09346 17.533 7.19721 17.3367C7.34721 17.0524 7.24158 16.6992 6.96033 16.5474C4.99846 15.4861 3.73283 13.4561 3.65658 11.2486C3.56596 8.60861 5.13158 6.24861 7.53596 5.25861L7.51283 6.57549C7.50971 6.77986 7.61221 6.97174 7.78408 7.08049C7.87721 7.14049 7.98346 7.16986 8.09033 7.16986ZM10.7872 4.54924L8.68471 5.62799L8.71971 3.65424L10.7872 4.54924ZM17.4953 10.7836C17.4116 8.34986 16.1303 6.10736 14.0691 4.78424C13.7978 4.61111 13.4428 4.69174 13.2722 4.96424C13.1022 5.23611 13.1816 5.59674 13.4503 5.76924C15.191 6.88612 16.2728 8.77549 16.3428 10.8236C16.4272 13.2724 15.0766 15.5024 12.9228 16.6024L12.8891 15.2861C12.8828 15.0817 12.7722 14.8955 12.5966 14.7942C12.421 14.6936 12.2053 14.6924 12.0297 14.793L8.06283 17.0442C7.86721 17.1555 7.75346 17.3705 7.76971 17.5967C7.78658 17.8224 7.93096 18.018 8.14096 18.0986L12.2047 19.6561C12.2716 19.6811 12.3403 19.6936 12.4091 19.6936C12.5266 19.6936 12.6441 19.6567 12.7428 19.5861C12.8997 19.4736 12.9903 19.2892 12.986 19.0955L12.9547 17.8717C15.7903 16.6699 17.6016 13.8736 17.4953 10.7836ZM9.70471 17.4499L11.7597 16.2836L11.8103 18.2567L9.70471 17.4499Z" fill="#FF4100"/>
</svg>
