<svg width="20" height="21" viewBox="0 0 20 21" fill="none" xmlns="http://www.w3.org/2000/svg">
<path d="M9.9994 2.71371C8.37017 2.71251 6.78064 3.21648 5.44974 4.15621C4.11879 5.09598 3.11196 6.42531 2.56794 7.9611C2.02392 9.49688 1.96947 11.1636 2.41209 12.7316C2.85465 14.2994 3.7724 15.6915 5.03894 16.7161C5.10583 16.7713 5.18971 16.8019 5.27648 16.8026L5.27675 16.8026C5.33413 16.8029 5.39083 16.7901 5.44254 16.7653C5.49396 16.7405 5.5391 16.7045 5.57459 16.6598C5.60587 16.6216 5.62935 16.5776 5.6437 16.5303C5.65815 16.4827 5.66305 16.4327 5.65814 16.3833C5.65322 16.3338 5.63859 16.2857 5.61507 16.2419C5.59154 16.1981 5.5596 16.1593 5.52107 16.1279L5.52073 16.1276C4.17977 15.043 3.27796 13.5085 2.98274 11.8093C2.68752 10.11 3.01895 8.36132 3.91549 6.88792C4.83978 5.36933 6.29859 4.25131 8.00525 3.75355C9.71191 3.2558 11.543 3.4143 13.1388 4.19791C13.1834 4.21983 13.2319 4.23273 13.2815 4.23585C13.3312 4.23898 13.3809 4.23228 13.428 4.21613C13.475 4.19999 13.5184 4.17472 13.5556 4.14177C13.5927 4.10892 13.6231 4.06907 13.6448 4.02452C13.6892 3.93492 13.6962 3.83136 13.6644 3.73656C13.6325 3.64164 13.5643 3.56325 13.4746 3.51863L13.4743 3.51846C12.3936 2.98561 11.2043 2.71017 9.9994 2.71371ZM9.9994 2.71371C9.99934 2.71371 9.99928 2.71371 9.99922 2.71371L9.99951 2.81371L9.99959 2.71371C9.99953 2.71371 9.99946 2.71371 9.9994 2.71371ZM9.99954 18.4693C11.3977 18.4689 12.7707 18.0965 13.9774 17.3901C15.184 16.6838 16.181 15.669 16.8658 14.45C17.5506 13.231 17.8987 11.8516 17.8742 10.4536C17.8498 9.05565 17.4537 7.68935 16.7266 6.49504L16.7265 6.49495C16.2568 5.72524 15.6594 5.04121 14.9598 4.47224L14.9598 4.47219C14.9211 4.44081 14.8767 4.41738 14.8289 4.40324C14.7812 4.3891 14.7312 4.38453 14.6817 4.38979C14.6322 4.39506 14.5842 4.41006 14.5405 4.43392C14.4968 4.45779 14.4583 4.49005 14.4271 4.52886L14.427 4.52905C14.3648 4.60687 14.3358 4.70611 14.3464 4.80516C14.357 4.90421 14.4063 4.99507 14.4836 5.05794L14.4836 5.05797C15.1169 5.57284 15.658 6.19171 16.0836 6.88808C16.8918 8.21476 17.244 9.76927 17.0866 11.3147C16.9293 12.8602 16.2709 14.3119 15.2119 15.4484C14.1529 16.585 12.7513 17.3442 11.2208 17.6102C9.69025 17.8763 8.1147 17.6346 6.73427 16.9221C6.64515 16.876 6.54139 16.8673 6.44581 16.8977L6.47616 16.993L6.43285 17.5054L6.38685 17.5942C7.50308 18.1724 8.74242 18.4726 9.99954 18.4693ZM9.99954 18.4693L9.99951 18.3693L9.99978 18.4693C9.9997 18.4693 9.99962 18.4693 9.99954 18.4693Z" fill="#FF4100" stroke="#FF4100" stroke-width="0.2"/>
<path d="M9.72174 18.1915L9.72227 18.1915C9.79843 18.1913 9.87276 18.1681 9.9355 18.1249C9.99824 18.0817 10.0465 18.0205 10.0738 17.9495C10.1012 17.8784 10.1064 17.8007 10.0889 17.7266C10.0713 17.6524 10.0317 17.5854 9.97538 17.5341L9.97469 17.5335C9.00129 16.665 8.25943 15.5677 7.81605 14.3408L7.81615 14.3408L7.81443 14.3366C7.32331 13.1479 7.06197 11.8768 7.04423 10.5908C7.04385 9.30488 7.30477 8.03231 7.81115 6.8503L7.81117 6.85031L7.81191 6.84847C8.30106 5.64111 9.03891 4.55025 9.97746 3.64686L9.97749 3.64689L9.9795 3.64484C10.047 3.57608 10.0856 3.48415 10.0875 3.38784C10.0895 3.29154 10.0545 3.19814 9.98987 3.12673C9.92522 3.05533 9.83573 3.01131 9.73971 3.00369C9.64369 2.99607 9.54838 3.02542 9.47328 3.08573L9.47302 3.08541L9.46648 3.09172C8.45272 4.06927 7.65648 5.2496 7.12974 6.55568C6.57794 7.8297 6.29176 9.20287 6.28865 10.5913L6.28869 10.5932C6.31194 11.9771 6.59699 13.3442 7.12876 14.6221C7.61002 15.9548 8.41402 17.1475 9.46888 18.0935C9.53813 18.1563 9.62823 18.1912 9.72174 18.1915Z" fill="#FF4100" stroke="#FF4100" stroke-width="0.2"/>
<path d="M10.277 18.1915L10.277 18.1916L10.2816 18.1914C10.3697 18.1875 10.4536 18.153 10.5188 18.0939C11.5779 17.1491 12.386 15.9562 12.8705 14.6222C13.4023 13.3443 13.6873 11.9772 13.7106 10.5932L13.7106 10.5932L13.7106 10.5916C13.7119 9.20407 13.4305 7.83085 12.8834 6.55574C12.3528 5.24874 11.552 4.06857 10.5336 3.0925C10.4978 3.0563 10.455 3.02772 10.4078 3.00847C10.3602 2.98901 10.309 2.97951 10.2575 2.98054C10.206 2.98157 10.1553 2.99311 10.1085 3.01446C10.0616 3.03581 10.0196 3.06651 9.98504 3.10468C9.95048 3.14285 9.92408 3.18769 9.90748 3.23643C9.89088 3.28517 9.88441 3.33679 9.88849 3.38813C9.89256 3.43946 9.90709 3.48941 9.93117 3.53493C9.9545 3.57902 9.98632 3.61803 10.0248 3.64974C10.9619 4.55257 11.6987 5.6424 12.1874 6.84848L12.1873 6.84849L12.1881 6.85031C12.6945 8.03231 12.9554 9.30488 12.955 10.5908C12.9373 11.8768 12.676 13.1479 12.1848 14.3366L12.1847 14.3366L12.1832 14.3408C11.7398 15.5678 10.998 16.665 10.0246 17.5335L10.0246 17.5335L10.0239 17.5342C9.96753 17.5854 9.92797 17.6525 9.9104 17.7266C9.89283 17.8007 9.89807 17.8784 9.92544 17.9495C9.95281 18.0205 10.001 18.0817 10.0638 18.1249C10.1265 18.1681 10.2008 18.1913 10.277 18.1915Z" fill="#FF4100" stroke="#FF4100" stroke-width="0.2"/>
<path d="M2.49946 10.9693H17.4995C17.5996 10.9693 17.6957 10.9295 17.7666 10.8586C17.8374 10.7878 17.8772 10.6917 17.8772 10.5915C17.8772 10.4913 17.8374 10.3952 17.7666 10.3244C17.6957 10.2535 17.5996 10.2137 17.4995 10.2137H2.49946C2.39926 10.2137 2.30318 10.2535 2.23233 10.3244C2.16148 10.3952 2.12168 10.4913 2.12168 10.5915C2.12168 10.6917 2.16148 10.7878 2.23233 10.8586C2.30318 10.9295 2.39926 10.9693 2.49946 10.9693ZM3.61057 7.08038H16.3883C16.4885 7.08038 16.5846 7.04057 16.6555 6.96973C16.7263 6.89888 16.7661 6.80279 16.7661 6.7026C16.7661 6.60241 16.7263 6.50632 16.6555 6.43547C16.5846 6.36462 16.4885 6.32482 16.3883 6.32482H3.61057C3.51038 6.32482 3.41429 6.36462 3.34344 6.43547C3.27259 6.50632 3.23279 6.6024 3.23279 6.7026C3.23279 6.80279 3.27259 6.89888 3.34344 6.96973C3.41429 7.04057 3.51038 7.08038 3.61057 7.08038ZM3.61057 14.8582H16.3883C16.4885 14.8582 16.5846 14.8184 16.6555 14.7475C16.7263 14.6767 16.7661 14.5806 16.7661 14.4804C16.7661 14.3802 16.7263 14.2841 16.6555 14.2132C16.5846 14.1424 16.4885 14.1026 16.3883 14.1026H3.61057C3.51038 14.1026 3.41429 14.1424 3.34344 14.2132C3.27259 14.2841 3.23279 14.3802 3.23279 14.4804C3.23279 14.5806 3.27259 14.6767 3.34344 14.7475C3.41429 14.8184 3.51038 14.8582 3.61057 14.8582Z" fill="#FF4100" stroke="#FF4100" stroke-width="0.2"/>
<path d="M9.73233 18.0808C9.80318 18.1517 9.89927 18.1915 9.99946 18.1915C10.0996 18.1915 10.1957 18.1517 10.2666 18.0808C10.3374 18.01 10.3772 17.9139 10.3772 17.8137V3.36927C10.3772 3.26908 10.3374 3.17299 10.2666 3.10214C10.1957 3.03129 10.0997 2.99149 9.99946 2.99149C9.89926 2.99149 9.80318 3.03129 9.73233 3.10214C9.66148 3.17299 9.62168 3.26908 9.62168 3.36927V17.8137C9.62168 17.9139 9.66148 18.01 9.73233 18.0808Z" fill="#FF4100" stroke="#FF4100" stroke-width="0.2"/>
</svg>
