<svg width="37" height="52" viewBox="0 0 37 52" fill="none" xmlns="http://www.w3.org/2000/svg">
<path d="M36.0781 18.0166C36.0781 8.35669 28.168 0.453125 18.5 0.453125C8.83203 0.453125 0.921875 8.35669 0.921875 18.0166C0.921875 27.1975 7.95312 34.7019 16.902 35.5002V41.9668H12.108C11.229 41.9668 10.5099 42.6853 10.5099 43.5635C10.5099 44.4417 11.229 45.1602 12.108 45.1602H16.902V49.9502C16.902 50.8284 17.6211 51.5469 18.5 51.5469C19.3789 51.5469 20.098 50.8284 20.098 49.9502V45.1602H24.892C25.771 45.1602 26.4901 44.4417 26.4901 43.5635C26.4901 42.6853 25.771 41.9668 24.892 41.9668H20.098V35.5002C29.0469 34.7019 36.0781 27.1975 36.0781 18.0166ZM4.1179 18.0166C4.1179 10.113 10.5898 3.64648 18.5 3.64648C26.4102 3.64648 32.8821 10.113 32.8821 18.0166C32.8821 25.9202 26.4102 32.3867 18.5 32.3867C10.5898 32.3867 4.1179 25.9202 4.1179 18.0166Z" fill="white"/>
</svg>
