<svg width="20" height="21" viewBox="0 0 20 21" fill="none" xmlns="http://www.w3.org/2000/svg">
<path d="M10 2.08099C5.16781 2.08099 1.25 5.99881 1.25 10.831C1.25 15.6632 5.16781 19.581 10 19.581C14.8322 19.581 18.75 15.6632 18.75 10.831C18.75 5.99881 14.8322 2.08099 10 2.08099ZM10 2.70599C11.6009 2.70599 13.0909 3.17787 14.3506 3.98037L12.0537 6.27724C11.4089 5.98365 10.7086 5.83149 10 5.83099C9.2675 5.83099 8.57344 5.99318 7.94625 6.27724L5.64937 3.98037C6.90906 3.17787 8.39906 2.70599 10 2.70599ZM5.44625 12.8847L3.14937 15.1816C2.34687 13.9222 1.875 12.4319 1.875 10.831C1.875 9.23006 2.34687 7.73974 3.14937 6.48037L5.44625 8.77724C5.15262 9.42213 5.00046 10.1224 5 10.831C5 11.5635 5.16219 12.2572 5.44625 12.8847ZM10 18.956C8.39906 18.956 6.90906 18.4841 5.64937 17.6816L7.94625 15.3847C8.59113 15.6784 9.29141 15.8305 10 15.831C10.7325 15.831 11.4262 15.6688 12.0537 15.3847L14.3506 17.6816C13.0909 18.4841 11.6009 18.956 10 18.956ZM14.0759 12.4113C13.8554 12.9772 13.5198 13.4912 13.0903 13.9207C12.6608 14.3501 12.1469 14.6858 11.5809 14.9063C11.0772 15.1036 10.541 15.2053 10 15.206C9.44219 15.206 8.91 15.0972 8.41906 14.9063C7.5979 14.5862 6.89217 14.0263 6.3938 13.2994C5.89544 12.5725 5.62753 11.7123 5.625 10.831C5.62871 9.67181 6.09084 8.56117 6.9105 7.7415C7.73017 6.92183 8.84082 6.4597 10 6.45599C11.1592 6.4597 12.2698 6.92183 13.0895 7.7415C13.9092 8.56117 14.3713 9.67181 14.375 10.831C14.375 11.3888 14.2662 11.9204 14.0759 12.4113ZM14.5537 12.8847C14.8472 12.2398 14.9994 11.5396 15 10.831C14.9994 10.1224 14.8472 9.42218 14.5537 8.77724L16.8506 6.48037C17.6531 7.73974 18.125 9.23006 18.125 10.831C18.125 12.4319 17.6531 13.9222 16.8506 15.1816L14.5537 12.8847Z" fill="#FF4100"/>
</svg>
