<svg width="40" height="41" viewBox="0 0 40 41" fill="none" xmlns="http://www.w3.org/2000/svg">
<path d="M28.9311 15.8833L28.9314 15.8835C29.4982 16.328 29.9565 16.8956 30.2715 17.5434C30.5866 18.1912 30.7502 18.9021 30.75 19.6224V19.6226V26.5001C30.75 27.7598 30.2496 28.968 29.3588 29.8588C28.468 30.7496 27.2598 31.2501 26 31.2501H23.75C23.6837 31.2501 23.6201 31.2237 23.5732 31.1768C23.5263 31.13 23.5 31.0664 23.5 31.0001V25.7501C23.5 24.8218 23.1312 23.9316 22.4749 23.2752C21.8185 22.6188 20.9283 22.2501 20 22.2501C19.0717 22.2501 18.1815 22.6188 17.5251 23.2752C16.8687 23.9316 16.5 24.8218 16.5 25.7501V31.0001C16.5 31.0664 16.4737 31.13 16.4268 31.1768C16.3799 31.2237 16.3163 31.2501 16.25 31.2501H14C12.7402 31.2501 11.532 30.7496 10.6412 29.8588C9.75045 28.968 9.25 27.7598 9.25 26.5001V19.6226L9.25 19.6224C9.24979 18.9021 9.41341 18.1912 9.72847 17.5434L9.27883 17.3247L9.72847 17.5434C10.0435 16.8956 10.5018 16.328 11.0686 15.8835L11.0689 15.8833L17.9914 10.4458L17.9915 10.4457C18.5642 9.99546 19.2715 9.75073 20 9.75073C20.7285 9.75073 21.4358 9.99546 22.0085 10.4457L22.0086 10.4458L28.9311 15.8833Z" stroke="#D3D3D3"/>
</svg>
