<svg width="20" height="21" viewBox="0 0 20 21" fill="none" xmlns="http://www.w3.org/2000/svg">
<path d="M10.492 10.96L8.57533 12.8683C8.49722 12.9458 8.43522 13.038 8.39292 13.1395C8.35061 13.2411 8.32883 13.35 8.32883 13.46C8.32883 13.57 8.35061 13.6789 8.39292 13.7805C8.43522 13.882 8.49722 13.9742 8.57533 14.0517C8.65279 14.1298 8.74496 14.1918 8.84651 14.2341C8.94806 14.2764 9.05698 14.2982 9.16699 14.2982C9.277 14.2982 9.38592 14.2764 9.48747 14.2341C9.58902 14.1918 9.68119 14.1298 9.75866 14.0517L13.092 10.7183C13.1679 10.6391 13.2273 10.5456 13.267 10.4433C13.3503 10.2404 13.3503 10.0129 13.267 9.80999C13.2273 9.7077 13.1679 9.61425 13.092 9.53499L9.75866 6.20166C9.68096 6.12396 9.58872 6.06233 9.4872 6.02028C9.38568 5.97823 9.27687 5.95658 9.16699 5.95658C9.05711 5.95658 8.9483 5.97823 8.84678 6.02028C8.74527 6.06233 8.65302 6.12396 8.57533 6.20166C8.49763 6.27936 8.43599 6.3716 8.39394 6.47312C8.35189 6.57464 8.33025 6.68344 8.33025 6.79333C8.33025 6.90321 8.35189 7.01202 8.39394 7.11353C8.43599 7.21505 8.49763 7.30729 8.57533 7.38499L10.492 9.29333H2.50033C2.27931 9.29333 2.06735 9.38112 1.91107 9.53741C1.75479 9.69369 1.66699 9.90565 1.66699 10.1267C1.66699 10.3477 1.75479 10.5596 1.91107 10.7159C2.06735 10.8722 2.27931 10.96 2.50033 10.96H10.492ZM10.0003 1.79333C8.4429 1.78637 6.9147 2.216 5.58905 3.03349C4.2634 3.85097 3.19337 5.02358 2.50033 6.41833C2.40087 6.61724 2.3845 6.84751 2.45483 7.05849C2.52516 7.26947 2.67641 7.44387 2.87533 7.54333C3.07424 7.64278 3.30451 7.65915 3.51549 7.58882C3.72647 7.5185 3.90087 7.36724 4.00033 7.16833C4.52715 6.10443 5.32852 5.20051 6.32162 4.54998C7.31471 3.89946 8.46351 3.52592 9.64929 3.46799C10.8351 3.41005 12.0148 3.66981 13.0666 4.22042C14.1184 4.77103 15.004 5.59252 15.6321 6.59999C16.2601 7.60746 16.6077 8.76437 16.639 9.95115C16.6703 11.1379 16.384 12.3115 15.8099 13.3507C15.2358 14.3898 14.3946 15.2568 13.3733 15.862C12.3519 16.4672 11.1875 16.7888 10.0003 16.7933C8.75773 16.7987 7.53879 16.4536 6.4834 15.7977C5.42802 15.1418 4.57895 14.2016 4.03366 13.085C3.9342 12.8861 3.7598 12.7348 3.54882 12.6645C3.33785 12.5942 3.10757 12.6105 2.90866 12.71C2.70975 12.8095 2.55849 12.9839 2.48816 13.1948C2.41784 13.4058 2.4342 13.6361 2.53366 13.835C3.19435 15.1646 4.19826 16.2935 5.44155 17.105C6.68484 17.9165 8.12237 18.3812 9.60543 18.4508C11.0885 18.5205 12.5632 18.1927 13.8771 17.5013C15.191 16.8099 16.2963 15.78 17.0787 14.5182C17.8611 13.2564 18.2922 11.8084 18.3274 10.3242C18.3626 8.83988 18.0006 7.37315 17.2789 6.07569C16.5571 4.77822 15.5019 3.69713 14.2222 2.94425C12.9426 2.19136 11.485 1.79402 10.0003 1.79333Z" fill="#FF4100"/>
</svg>
