<svg width="39" height="52" viewBox="0 0 39 52" fill="none" xmlns="http://www.w3.org/2000/svg">
<path d="M21.2031 14.2059V6.21193L23.4172 8.42302C23.5665 8.58993 23.7506 8.72212 23.9566 8.81028C24.1626 8.89844 24.3854 8.94042 24.6094 8.93327C25.055 8.91038 25.4777 8.72944 25.8016 8.42302C26.1136 8.10508 26.2884 7.67763 26.2884 7.23243C26.2884 6.78723 26.1136 6.35978 25.8016 6.04184L20.6922 0.939322C20.3738 0.627682 19.9458 0.453125 19.5 0.453125C19.0542 0.453125 18.6262 0.627682 18.3078 0.939322L13.1985 6.04184C12.9525 6.36938 12.8331 6.77453 12.8621 7.18292C12.8912 7.5913 13.0668 7.97552 13.3567 8.26502C13.6466 8.55452 14.0313 8.72988 14.4402 8.75891C14.8492 8.78793 15.2549 8.66867 15.5828 8.42302L17.7969 6.21193V14.2059C12.9958 14.6436 8.54842 16.9128 5.37991 20.5416C2.21141 24.1704 0.565679 28.8793 0.785046 33.6889C1.00441 38.4986 3.07199 43.0386 6.55771 46.3647C10.0434 49.6908 14.6789 51.5469 19.5 51.5469C24.3211 51.5469 28.9566 49.6908 32.4423 46.3647C35.928 43.0386 37.9956 38.4986 38.215 33.6889C38.4344 28.8793 36.7886 24.1704 33.6201 20.5416C30.4516 16.9128 26.0043 14.6436 21.2031 14.2059ZM19.5 48.0526C16.4684 48.0526 13.5049 47.1548 10.9842 45.4728C8.46347 43.7908 6.49883 41.4001 5.33868 38.603C4.17853 35.8059 3.87498 32.728 4.46642 29.7587C5.05786 26.7893 6.51772 24.0617 8.6614 21.9209C10.8051 19.7801 13.5363 18.3222 16.5097 17.7316C19.483 17.141 22.565 17.4441 25.3658 18.6027C28.1667 19.7613 30.5606 21.7233 32.2449 24.2406C33.9292 26.7579 34.8281 29.7175 34.8281 32.745C34.8281 36.8048 33.2132 40.6984 30.3386 43.5691C27.4641 46.4398 23.5653 48.0526 19.5 48.0526Z" fill="white"/>
</svg>
