<svg width="20" height="21" viewBox="0 0 20 21" fill="none" xmlns="http://www.w3.org/2000/svg">
<path d="M10.7663 13.0351C10.7497 12.9839 10.7243 12.936 10.6913 12.8935L10.5913 12.7685C10.5139 12.6903 10.4217 12.6283 10.3202 12.586C10.2186 12.5437 10.1097 12.522 9.99968 12.522C9.88967 12.522 9.78075 12.5437 9.6792 12.586C9.57765 12.6283 9.48548 12.6903 9.40801 12.7685C9.36829 12.8046 9.33454 12.8468 9.30801 12.8935C9.27503 12.936 9.24965 12.9839 9.23301 13.0351C9.20888 13.0852 9.19204 13.1386 9.18301 13.1935C9.17893 13.2461 9.17893 13.2991 9.18301 13.3518C9.18012 13.4638 9.20292 13.575 9.24968 13.6768C9.33448 13.8794 9.49587 14.0404 9.69875 14.1247C9.90163 14.209 10.1296 14.2097 10.333 14.1268C10.4343 14.0815 10.5272 14.0195 10.608 13.9435C10.683 13.8667 10.7424 13.7761 10.783 13.6768C10.8268 13.574 10.8495 13.4635 10.8497 13.3518C10.8538 13.2991 10.8538 13.2461 10.8497 13.1935C10.8302 13.1367 10.8021 13.0833 10.7663 13.0351ZM9.99968 6.66845C9.77867 6.66845 9.5667 6.75625 9.41042 6.91253C9.25414 7.06881 9.16635 7.28077 9.16635 7.50178V10.0018C9.16635 10.2228 9.25414 10.4348 9.41042 10.591C9.5667 10.7473 9.77867 10.8351 9.99968 10.8351C10.2207 10.8351 10.4327 10.7473 10.5889 10.591C10.7452 10.4348 10.833 10.2228 10.833 10.0018V7.50178C10.833 7.28077 10.7452 7.06881 10.5889 6.91253C10.4327 6.75625 10.2207 6.66845 9.99968 6.66845ZM16.358 3.57679C16.2612 3.49847 16.1481 3.44285 16.0269 3.414C15.9058 3.38516 15.7797 3.38383 15.658 3.41012C14.7675 3.59674 13.8483 3.59912 12.9569 3.4171C12.0655 3.23509 11.2207 2.87255 10.4747 2.35179C10.3352 2.25501 10.1695 2.20316 9.99968 2.20316C9.8299 2.20316 9.66418 2.25501 9.52468 2.35179C8.77864 2.87255 7.93391 3.23509 7.04248 3.4171C6.15106 3.59912 5.23182 3.59674 4.34135 3.41012C4.21963 3.38383 4.09357 3.38516 3.97243 3.414C3.85129 3.44285 3.73816 3.49847 3.64135 3.57679C3.54466 3.65522 3.46678 3.75432 3.41342 3.8668C3.36007 3.97928 3.33259 4.10229 3.33301 4.22678V10.4351C3.33227 11.6299 3.61699 12.8076 4.16346 13.8701C4.70993 14.9326 5.50233 15.8491 6.47468 16.5435L9.51635 18.7101C9.65748 18.8106 9.82643 18.8646 9.99968 18.8646C10.1729 18.8646 10.3419 18.8106 10.483 18.7101L13.5247 16.5435C14.497 15.8491 15.2894 14.9326 15.8359 13.8701C16.3824 12.8076 16.6671 11.6299 16.6663 10.4351V4.22678C16.6668 4.10229 16.6393 3.97928 16.5859 3.8668C16.5326 3.75432 16.4547 3.65522 16.358 3.57679ZM14.9997 10.4351C15.0003 11.3641 14.7791 12.2798 14.3544 13.106C13.9297 13.9322 13.3138 14.645 12.558 15.1851L9.99968 17.0101L7.44135 15.1851C6.68554 14.645 6.06967 13.9322 5.64497 13.106C5.22027 12.2798 4.99904 11.3641 4.99968 10.4351V5.18512C6.7467 5.33465 8.49638 4.9293 9.99968 4.02679C11.503 4.9293 13.2527 5.33465 14.9997 5.18512V10.4351Z" fill="#FF4100"/>
</svg>
