<svg width="20" height="21" viewBox="0 0 20 21" fill="none" xmlns="http://www.w3.org/2000/svg">
<path d="M8.23435 14.1053L8.23436 14.1055L8.24689 14.1044C9.41988 14.0099 10.5983 14.0099 11.7713 14.1044L11.7712 14.1046L11.7823 14.1052C12.4127 14.142 13.0402 14.2208 13.6607 14.3412C15.0242 14.6175 15.7249 15.0377 16.0026 15.5626C16.2209 15.9975 16.2209 16.5157 16.0026 16.9506C15.7221 17.481 15.0475 17.9269 13.6574 18.1699L13.6574 18.1697L13.6447 18.1723C13.0251 18.2972 12.398 18.3784 11.7678 18.4153L11.755 18.4161L11.7422 18.4175C11.1685 18.4807 10.5904 18.4812 9.97303 18.4812H8.90134C8.66696 18.4523 8.43739 18.4373 8.21284 18.4367C7.58784 18.404 6.96588 18.3255 6.35164 18.2019L6.35164 18.2019L6.34718 18.201C4.98928 17.9405 4.28442 17.5055 4.00677 16.9772C3.89396 16.7615 3.83405 16.5197 3.8331 16.2731L3.83307 16.2705C3.83078 16.0232 3.88872 15.78 4.00084 15.5631L4.00112 15.5626C4.27171 15.0375 4.97392 14.5953 6.34374 14.3424L6.34375 14.3424L6.34929 14.3414C6.9718 14.2192 7.60158 14.1403 8.23435 14.1053ZM10.0019 2.81454C12.1295 2.81454 13.878 4.59225 13.878 6.81483C13.878 9.03742 12.1295 10.8151 10.0019 10.8151C7.87425 10.8151 6.12577 9.03742 6.12577 6.81483C6.12577 4.59225 7.87425 2.81454 10.0019 2.81454Z" stroke="#FF4100"/>
</svg>
