<svg width="40" height="41" viewBox="0 0 40 41" fill="none" xmlns="http://www.w3.org/2000/svg">
<path d="M17.8761 24.5491L17.8761 24.5492L17.8886 24.5482C19.3016 24.4343 20.721 24.4343 22.1339 24.5482L22.1339 24.5483L22.145 24.549C22.9061 24.5933 23.6636 24.6885 24.4127 24.8339C26.0547 25.1666 26.9369 25.6788 27.2924 26.3518C27.5692 26.9025 27.5692 27.5584 27.2923 28.1091C26.9341 28.7877 26.0851 29.3315 24.4065 29.6249L24.4065 29.6247L24.3938 29.6273C23.6457 29.7781 22.8886 29.8762 22.1275 29.9208L22.1148 29.9215L22.102 29.9229C21.4072 29.9995 20.708 30 19.968 30H18.6758C18.3952 29.9652 18.1209 29.9472 17.8529 29.9466C17.0972 29.9071 16.3452 29.8123 15.6026 29.6628L15.5982 29.662C13.9618 29.3481 13.0753 28.8181 12.7199 28.1414C12.577 27.8684 12.5013 27.5624 12.5001 27.2507L12.5001 27.248C12.4972 26.9352 12.5705 26.6272 12.7126 26.3524L12.7129 26.3518C13.0599 25.6785 13.9437 25.1399 15.5947 24.8351L15.5947 24.8351L15.6003 24.8341C16.3518 24.6865 17.1121 24.5913 17.8761 24.5491ZM20.0026 11C22.6136 11 24.7539 13.1807 24.7539 15.9004C24.7539 18.62 22.6136 20.8007 20.0026 20.8007C17.3916 20.8007 15.2513 18.62 15.2513 15.9004C15.2513 13.1807 17.3916 11 20.0026 11Z" stroke="white"/>
</svg>
