<svg width="20" height="21" viewBox="0 0 20 21" fill="none" xmlns="http://www.w3.org/2000/svg">
<path d="M10.001 4.98936C7.10598 4.98936 4.75098 7.34436 4.75098 10.2394C4.75098 13.1344 7.10598 15.4894 10.001 15.4894C12.896 15.4894 15.251 13.1344 15.251 10.2394C15.251 7.34436 12.8957 4.98936 10.001 4.98936ZM10.001 14.9894C7.38173 14.9894 5.25098 12.8586 5.25098 10.2394C5.25098 7.62011 7.38173 5.48936 10.001 5.48936C12.6202 5.48936 14.751 7.62011 14.751 10.2394C14.751 12.8586 12.62 14.9894 10.001 14.9894Z" fill="#FF4100"/>
<mask id="path-2-outside-1_210_706" maskUnits="userSpaceOnUse" x="0.25" y="0.489365" width="19" height="19" fill="black">
<rect fill="white" x="0.25" y="0.489365" width="19" height="19"/>
<path d="M18.5 9.00511H16.8905C16.7142 8.02227 16.3297 7.08849 15.763 6.26636L16.9055 5.12386C16.9524 5.07698 16.9787 5.01341 16.9787 4.94711C16.9787 4.88082 16.9524 4.81725 16.9055 4.77036L15.4913 3.35611C15.4444 3.30925 15.3808 3.28292 15.3145 3.28292C15.2482 3.28292 15.1846 3.30925 15.1377 3.35611L13.9995 4.49436C13.18 3.92354 12.2479 3.53467 11.2657 3.35386V1.73936C11.2657 1.67306 11.2394 1.60947 11.1925 1.56259C11.1456 1.5157 11.0821 1.48936 11.0157 1.48936H9.01575C8.94945 1.48936 8.88586 1.5157 8.83897 1.56259C8.79209 1.60947 8.76575 1.67306 8.76575 1.73936V3.34886C7.78287 3.52507 6.84906 3.9095 6.027 4.47636L4.8845 3.33386C4.83762 3.287 4.77404 3.26067 4.70775 3.26067C4.64146 3.26067 4.57788 3.287 4.531 3.33386L3.11675 4.74811C3.06988 4.795 3.04355 4.85857 3.04355 4.92486C3.04355 4.99116 3.06988 5.05473 3.11675 5.10161L4.255 6.23986C3.68414 7.0594 3.29527 7.9916 3.1145 8.97386H1.5C1.4337 8.97386 1.37011 9.0002 1.32322 9.04709C1.27634 9.09397 1.25 9.15756 1.25 9.22386V11.2239C1.25 11.2902 1.27634 11.3538 1.32322 11.4006C1.37011 11.4475 1.4337 11.4739 1.5 11.4739H3.1095C3.28587 12.4566 3.6703 13.3903 4.237 14.2124L3.0945 15.3549C3.04763 15.4017 3.0213 15.4653 3.0213 15.5316C3.0213 15.5979 3.04763 15.6615 3.0945 15.7084L4.50875 17.1226C4.55563 17.1695 4.61921 17.1958 4.6855 17.1958C4.75179 17.1958 4.81537 17.1695 4.86225 17.1226L6.0005 15.9844C6.82003 16.5552 7.75224 16.9441 8.7345 17.1249V18.7394C8.7345 18.8057 8.76084 18.8693 8.80772 18.9161C8.85461 18.963 8.9182 18.9894 8.9845 18.9894H10.9845C11.0508 18.9894 11.1144 18.963 11.1613 18.9161C11.2082 18.8693 11.2345 18.8057 11.2345 18.7394V17.1299C12.2173 16.9536 13.151 16.5692 13.973 16.0024L15.1155 17.1449C15.1624 17.1917 15.226 17.2181 15.2922 17.2181C15.3585 17.2181 15.4221 17.1917 15.469 17.1449L16.8832 15.7306C16.9301 15.6837 16.9564 15.6202 16.9564 15.5539C16.9564 15.4876 16.9301 15.424 16.8832 15.3771L15.745 14.2389C16.3158 13.4194 16.7047 12.4873 16.8855 11.5051H18.5C18.5663 11.5051 18.6299 11.4788 18.6768 11.4319C18.7237 11.385 18.75 11.3214 18.75 11.2551V9.25511C18.75 9.18881 18.7237 9.12522 18.6768 9.07834C18.6299 9.03145 18.5663 9.00511 18.5 9.00511ZM18.25 11.0051H16.6737C16.6139 11.0051 16.5561 11.0265 16.5107 11.0655C16.4654 11.1045 16.4355 11.1585 16.4265 11.2176C16.2668 12.2681 15.8517 13.2633 15.2175 14.1159C15.1816 14.164 15.1642 14.2235 15.1686 14.2834C15.173 14.3433 15.1988 14.3997 15.2413 14.4421L16.353 15.5539L15.2925 16.6144L14.177 15.4994C14.1348 15.457 14.0787 15.4312 14.0191 15.4267C13.9595 15.4221 13.9002 15.4391 13.852 15.4746C12.9965 16.1045 11.9995 16.5148 10.9485 16.6696C10.8891 16.6783 10.8348 16.7081 10.7955 16.7536C10.7563 16.799 10.7347 16.8571 10.7347 16.9171V18.4894H9.23475V16.9131C9.23476 16.8533 9.21329 16.7954 9.17425 16.75C9.13521 16.7046 9.08119 16.6748 9.022 16.6659C7.97151 16.5062 6.97629 16.0911 6.12375 15.4569C6.07565 15.4208 6.01614 15.4034 5.95618 15.4077C5.89623 15.4121 5.83988 15.438 5.7975 15.4806L4.68575 16.5924L3.625 15.5319L4.74 14.4164C4.78236 14.3741 4.80816 14.3181 4.8127 14.2585C4.81724 14.1988 4.80023 14.1395 4.76475 14.0914C4.13505 13.2358 3.72473 12.2388 3.56975 11.1879C3.56104 11.1285 3.53124 11.0742 3.4858 11.0349C3.44035 10.9957 3.3823 10.9741 3.32225 10.9741H1.75V9.47411H3.32625C3.38611 9.47412 3.44398 9.45266 3.48935 9.41362C3.53472 9.37458 3.56458 9.32055 3.5735 9.26136C3.73315 8.21087 4.14831 7.21565 4.7825 6.36311C4.8184 6.31495 4.83575 6.25548 4.83139 6.19557C4.82703 6.13566 4.80124 6.07932 4.75875 6.03686L3.647 4.92511L4.7075 3.86436L5.823 4.97936C5.9105 5.06761 6.04875 5.07686 6.148 5.00411C7.00348 4.37422 8.00047 3.96389 9.0515 3.80911C9.11096 3.80046 9.16531 3.77069 9.20461 3.72523C9.24391 3.67978 9.26553 3.6217 9.2655 3.56161V1.98936H10.7655V3.56561C10.7655 3.62543 10.7869 3.68328 10.8259 3.72864C10.8649 3.77401 10.9189 3.80389 10.978 3.81286C12.0235 3.97036 13.0255 4.38861 13.8763 5.02186C13.9244 5.05776 13.9839 5.07512 14.0438 5.07075C14.1037 5.06639 14.16 5.04061 14.2025 4.99811L15.3142 3.88636L16.375 4.94686L15.26 6.06236C15.2176 6.1046 15.1918 6.16063 15.1873 6.22027C15.1828 6.27991 15.1998 6.33921 15.2353 6.38736C15.865 7.24295 16.2753 8.23989 16.4303 9.29086C16.4389 9.35032 16.4687 9.40468 16.5141 9.44398C16.5596 9.48327 16.6177 9.50489 16.6777 9.50486H18.25V11.0051Z"/>
</mask>
<path d="M18.5 9.00511H16.8905C16.7142 8.02227 16.3297 7.08849 15.763 6.26636L16.9055 5.12386C16.9524 5.07698 16.9787 5.01341 16.9787 4.94711C16.9787 4.88082 16.9524 4.81725 16.9055 4.77036L15.4913 3.35611C15.4444 3.30925 15.3808 3.28292 15.3145 3.28292C15.2482 3.28292 15.1846 3.30925 15.1377 3.35611L13.9995 4.49436C13.18 3.92354 12.2479 3.53467 11.2657 3.35386V1.73936C11.2657 1.67306 11.2394 1.60947 11.1925 1.56259C11.1456 1.5157 11.0821 1.48936 11.0157 1.48936H9.01575C8.94945 1.48936 8.88586 1.5157 8.83897 1.56259C8.79209 1.60947 8.76575 1.67306 8.76575 1.73936V3.34886C7.78287 3.52507 6.84906 3.9095 6.027 4.47636L4.8845 3.33386C4.83762 3.287 4.77404 3.26067 4.70775 3.26067C4.64146 3.26067 4.57788 3.287 4.531 3.33386L3.11675 4.74811C3.06988 4.795 3.04355 4.85857 3.04355 4.92486C3.04355 4.99116 3.06988 5.05473 3.11675 5.10161L4.255 6.23986C3.68414 7.0594 3.29527 7.9916 3.1145 8.97386H1.5C1.4337 8.97386 1.37011 9.0002 1.32322 9.04709C1.27634 9.09397 1.25 9.15756 1.25 9.22386V11.2239C1.25 11.2902 1.27634 11.3538 1.32322 11.4006C1.37011 11.4475 1.4337 11.4739 1.5 11.4739H3.1095C3.28587 12.4566 3.6703 13.3903 4.237 14.2124L3.0945 15.3549C3.04763 15.4017 3.0213 15.4653 3.0213 15.5316C3.0213 15.5979 3.04763 15.6615 3.0945 15.7084L4.50875 17.1226C4.55563 17.1695 4.61921 17.1958 4.6855 17.1958C4.75179 17.1958 4.81537 17.1695 4.86225 17.1226L6.0005 15.9844C6.82003 16.5552 7.75224 16.9441 8.7345 17.1249V18.7394C8.7345 18.8057 8.76084 18.8693 8.80772 18.9161C8.85461 18.963 8.9182 18.9894 8.9845 18.9894H10.9845C11.0508 18.9894 11.1144 18.963 11.1613 18.9161C11.2082 18.8693 11.2345 18.8057 11.2345 18.7394V17.1299C12.2173 16.9536 13.151 16.5692 13.973 16.0024L15.1155 17.1449C15.1624 17.1917 15.226 17.2181 15.2922 17.2181C15.3585 17.2181 15.4221 17.1917 15.469 17.1449L16.8832 15.7306C16.9301 15.6837 16.9564 15.6202 16.9564 15.5539C16.9564 15.4876 16.9301 15.424 16.8832 15.3771L15.745 14.2389C16.3158 13.4194 16.7047 12.4873 16.8855 11.5051H18.5C18.5663 11.5051 18.6299 11.4788 18.6768 11.4319C18.7237 11.385 18.75 11.3214 18.75 11.2551V9.25511C18.75 9.18881 18.7237 9.12522 18.6768 9.07834C18.6299 9.03145 18.5663 9.00511 18.5 9.00511ZM18.25 11.0051H16.6737C16.6139 11.0051 16.5561 11.0265 16.5107 11.0655C16.4654 11.1045 16.4355 11.1585 16.4265 11.2176C16.2668 12.2681 15.8517 13.2633 15.2175 14.1159C15.1816 14.164 15.1642 14.2235 15.1686 14.2834C15.173 14.3433 15.1988 14.3997 15.2413 14.4421L16.353 15.5539L15.2925 16.6144L14.177 15.4994C14.1348 15.457 14.0787 15.4312 14.0191 15.4267C13.9595 15.4221 13.9002 15.4391 13.852 15.4746C12.9965 16.1045 11.9995 16.5148 10.9485 16.6696C10.8891 16.6783 10.8348 16.7081 10.7955 16.7536C10.7563 16.799 10.7347 16.8571 10.7347 16.9171V18.4894H9.23475V16.9131C9.23476 16.8533 9.21329 16.7954 9.17425 16.75C9.13521 16.7046 9.08119 16.6748 9.022 16.6659C7.97151 16.5062 6.97629 16.0911 6.12375 15.4569C6.07565 15.4208 6.01614 15.4034 5.95618 15.4077C5.89623 15.4121 5.83988 15.438 5.7975 15.4806L4.68575 16.5924L3.625 15.5319L4.74 14.4164C4.78236 14.3741 4.80816 14.3181 4.8127 14.2585C4.81724 14.1988 4.80023 14.1395 4.76475 14.0914C4.13505 13.2358 3.72473 12.2388 3.56975 11.1879C3.56104 11.1285 3.53124 11.0742 3.4858 11.0349C3.44035 10.9957 3.3823 10.9741 3.32225 10.9741H1.75V9.47411H3.32625C3.38611 9.47412 3.44398 9.45266 3.48935 9.41362C3.53472 9.37458 3.56458 9.32055 3.5735 9.26136C3.73315 8.21087 4.14831 7.21565 4.7825 6.36311C4.8184 6.31495 4.83575 6.25548 4.83139 6.19557C4.82703 6.13566 4.80124 6.07932 4.75875 6.03686L3.647 4.92511L4.7075 3.86436L5.823 4.97936C5.9105 5.06761 6.04875 5.07686 6.148 5.00411C7.00348 4.37422 8.00047 3.96389 9.0515 3.80911C9.11096 3.80046 9.16531 3.77069 9.20461 3.72523C9.24391 3.67978 9.26553 3.6217 9.2655 3.56161V1.98936H10.7655V3.56561C10.7655 3.62543 10.7869 3.68328 10.8259 3.72864C10.8649 3.77401 10.9189 3.80389 10.978 3.81286C12.0235 3.97036 13.0255 4.38861 13.8763 5.02186C13.9244 5.05776 13.9839 5.07512 14.0438 5.07075C14.1037 5.06639 14.16 5.04061 14.2025 4.99811L15.3142 3.88636L16.375 4.94686L15.26 6.06236C15.2176 6.1046 15.1918 6.16063 15.1873 6.22027C15.1828 6.27991 15.1998 6.33921 15.2353 6.38736C15.865 7.24295 16.2753 8.23989 16.4303 9.29086C16.4389 9.35032 16.4687 9.40468 16.5141 9.44398C16.5596 9.48327 16.6177 9.50489 16.6777 9.50486H18.25V11.0051Z" fill="#FF4100"/>
<path d="M18.5 9.00511H16.8905C16.7142 8.02227 16.3297 7.08849 15.763 6.26636L16.9055 5.12386C16.9524 5.07698 16.9787 5.01341 16.9787 4.94711C16.9787 4.88082 16.9524 4.81725 16.9055 4.77036L15.4913 3.35611C15.4444 3.30925 15.3808 3.28292 15.3145 3.28292C15.2482 3.28292 15.1846 3.30925 15.1377 3.35611L13.9995 4.49436C13.18 3.92354 12.2479 3.53467 11.2657 3.35386V1.73936C11.2657 1.67306 11.2394 1.60947 11.1925 1.56259C11.1456 1.5157 11.0821 1.48936 11.0157 1.48936H9.01575C8.94945 1.48936 8.88586 1.5157 8.83897 1.56259C8.79209 1.60947 8.76575 1.67306 8.76575 1.73936V3.34886C7.78287 3.52507 6.84906 3.9095 6.027 4.47636L4.8845 3.33386C4.83762 3.287 4.77404 3.26067 4.70775 3.26067C4.64146 3.26067 4.57788 3.287 4.531 3.33386L3.11675 4.74811C3.06988 4.795 3.04355 4.85857 3.04355 4.92486C3.04355 4.99116 3.06988 5.05473 3.11675 5.10161L4.255 6.23986C3.68414 7.0594 3.29527 7.9916 3.1145 8.97386H1.5C1.4337 8.97386 1.37011 9.0002 1.32322 9.04709C1.27634 9.09397 1.25 9.15756 1.25 9.22386V11.2239C1.25 11.2902 1.27634 11.3538 1.32322 11.4006C1.37011 11.4475 1.4337 11.4739 1.5 11.4739H3.1095C3.28587 12.4566 3.6703 13.3903 4.237 14.2124L3.0945 15.3549C3.04763 15.4017 3.0213 15.4653 3.0213 15.5316C3.0213 15.5979 3.04763 15.6615 3.0945 15.7084L4.50875 17.1226C4.55563 17.1695 4.61921 17.1958 4.6855 17.1958C4.75179 17.1958 4.81537 17.1695 4.86225 17.1226L6.0005 15.9844C6.82003 16.5552 7.75224 16.9441 8.7345 17.1249V18.7394C8.7345 18.8057 8.76084 18.8693 8.80772 18.9161C8.85461 18.963 8.9182 18.9894 8.9845 18.9894H10.9845C11.0508 18.9894 11.1144 18.963 11.1613 18.9161C11.2082 18.8693 11.2345 18.8057 11.2345 18.7394V17.1299C12.2173 16.9536 13.151 16.5692 13.973 16.0024L15.1155 17.1449C15.1624 17.1917 15.226 17.2181 15.2922 17.2181C15.3585 17.2181 15.4221 17.1917 15.469 17.1449L16.8832 15.7306C16.9301 15.6837 16.9564 15.6202 16.9564 15.5539C16.9564 15.4876 16.9301 15.424 16.8832 15.3771L15.745 14.2389C16.3158 13.4194 16.7047 12.4873 16.8855 11.5051H18.5C18.5663 11.5051 18.6299 11.4788 18.6768 11.4319C18.7237 11.385 18.75 11.3214 18.75 11.2551V9.25511C18.75 9.18881 18.7237 9.12522 18.6768 9.07834C18.6299 9.03145 18.5663 9.00511 18.5 9.00511ZM18.25 11.0051H16.6737C16.6139 11.0051 16.5561 11.0265 16.5107 11.0655C16.4654 11.1045 16.4355 11.1585 16.4265 11.2176C16.2668 12.2681 15.8517 13.2633 15.2175 14.1159C15.1816 14.164 15.1642 14.2235 15.1686 14.2834C15.173 14.3433 15.1988 14.3997 15.2413 14.4421L16.353 15.5539L15.2925 16.6144L14.177 15.4994C14.1348 15.457 14.0787 15.4312 14.0191 15.4267C13.9595 15.4221 13.9002 15.4391 13.852 15.4746C12.9965 16.1045 11.9995 16.5148 10.9485 16.6696C10.8891 16.6783 10.8348 16.7081 10.7955 16.7536C10.7563 16.799 10.7347 16.8571 10.7347 16.9171V18.4894H9.23475V16.9131C9.23476 16.8533 9.21329 16.7954 9.17425 16.75C9.13521 16.7046 9.08119 16.6748 9.022 16.6659C7.97151 16.5062 6.97629 16.0911 6.12375 15.4569C6.07565 15.4208 6.01614 15.4034 5.95618 15.4077C5.89623 15.4121 5.83988 15.438 5.7975 15.4806L4.68575 16.5924L3.625 15.5319L4.74 14.4164C4.78236 14.3741 4.80816 14.3181 4.8127 14.2585C4.81724 14.1988 4.80023 14.1395 4.76475 14.0914C4.13505 13.2358 3.72473 12.2388 3.56975 11.1879C3.56104 11.1285 3.53124 11.0742 3.4858 11.0349C3.44035 10.9957 3.3823 10.9741 3.32225 10.9741H1.75V9.47411H3.32625C3.38611 9.47412 3.44398 9.45266 3.48935 9.41362C3.53472 9.37458 3.56458 9.32055 3.5735 9.26136C3.73315 8.21087 4.14831 7.21565 4.7825 6.36311C4.8184 6.31495 4.83575 6.25548 4.83139 6.19557C4.82703 6.13566 4.80124 6.07932 4.75875 6.03686L3.647 4.92511L4.7075 3.86436L5.823 4.97936C5.9105 5.06761 6.04875 5.07686 6.148 5.00411C7.00348 4.37422 8.00047 3.96389 9.0515 3.80911C9.11096 3.80046 9.16531 3.77069 9.20461 3.72523C9.24391 3.67978 9.26553 3.6217 9.2655 3.56161V1.98936H10.7655V3.56561C10.7655 3.62543 10.7869 3.68328 10.8259 3.72864C10.8649 3.77401 10.9189 3.80389 10.978 3.81286C12.0235 3.97036 13.0255 4.38861 13.8763 5.02186C13.9244 5.05776 13.9839 5.07512 14.0438 5.07075C14.1037 5.06639 14.16 5.04061 14.2025 4.99811L15.3142 3.88636L16.375 4.94686L15.26 6.06236C15.2176 6.1046 15.1918 6.16063 15.1873 6.22027C15.1828 6.27991 15.1998 6.33921 15.2353 6.38736C15.865 7.24295 16.2753 8.23989 16.4303 9.29086C16.4389 9.35032 16.4687 9.40468 16.5141 9.44398C16.5596 9.48327 16.6177 9.50489 16.6777 9.50486H18.25V11.0051Z" stroke="#FF4100" stroke-width="0.4" mask="url(#path-2-outside-1_210_706)"/>
<path d="M11.851 9.64523V8.98938C11.851 7.96915 11.0212 7.13938 10.001 7.13938C8.98075 7.13938 8.15098 7.96915 8.15098 8.98938V9.64523C7.72921 9.69486 7.40098 10.0545 7.40098 10.4894V12.4894C7.40098 12.9581 7.78225 13.3394 8.25098 13.3394H11.751C12.2197 13.3394 12.601 12.9581 12.601 12.4894V10.4894C12.601 10.0545 12.2727 9.69486 11.851 9.64523ZM8.85098 8.98938C8.85098 8.35536 9.36696 7.83938 10.001 7.83938C10.635 7.83938 11.151 8.35536 11.151 8.98938V9.63938H8.85098V8.98938ZM11.901 12.4894C11.901 12.5292 11.8852 12.5673 11.857 12.5954C11.8289 12.6236 11.7908 12.6394 11.751 12.6394H8.25098C8.21119 12.6394 8.17304 12.6236 8.14491 12.5954C8.11678 12.5673 8.10098 12.5292 8.10098 12.4894V10.4894C8.10098 10.4496 8.11678 10.4114 8.14491 10.3833C8.17304 10.3552 8.21119 10.3394 8.25098 10.3394H11.751C11.7908 10.3394 11.8289 10.3552 11.857 10.3833C11.8852 10.4114 11.901 10.4496 11.901 10.4894V12.4894Z" fill="#FF4100" stroke="#FF4100" stroke-width="0.2"/>
</svg>
