<svg width="41" height="41" viewBox="0 0 41 41" fill="none" xmlns="http://www.w3.org/2000/svg">
<path d="M15.4028 29.9503C15.3549 29.9067 15.308 29.8619 15.2622 29.816L15.4028 29.9503ZM15.4028 29.9503C15.1315 30.1124 14.8193 30.2 14.4982 30.2C14.035 30.2 13.5904 30.0177 13.2605 29.6927C13.2602 29.6923 13.2598 29.6919 13.2594 29.6916L11.1395 27.5716L15.4028 29.9503ZM27.8823 19.6695L27.4049 20.1461L27.4046 20.1464C27.2421 20.309 27.0492 20.4379 26.8368 20.5259C26.6245 20.6138 26.3969 20.6591 26.1671 20.6591C25.9372 20.6591 25.7097 20.6138 25.4973 20.5259C25.285 20.4379 25.092 20.309 24.9295 20.1464L24.9293 20.1462L23.3378 18.5562L22.9843 18.203L22.6309 18.5564L18.3889 22.7984L18.0354 23.1519L18.3888 23.5054L19.9796 25.0969L19.9796 25.097C20.3077 25.4251 20.492 25.8702 20.492 26.3342C20.492 26.7982 20.3077 27.2433 19.9796 27.5715L19.5022 28.0481L19.502 28.0483C19.1738 28.3764 18.7287 28.5607 18.2647 28.5607C17.8007 28.5607 17.3556 28.3764 17.0275 28.0483L12.7841 23.805C12.784 23.8049 12.784 23.8049 12.784 23.8049C12.456 23.4767 12.2717 23.0317 12.2717 22.5677C12.2717 22.1037 12.4559 21.6588 12.7839 21.3306C12.784 21.3305 12.784 21.3305 12.7841 21.3305L13.2615 20.8538L13.2618 20.8535C13.4243 20.6909 13.6172 20.562 13.8296 20.474L13.6382 20.0121L13.8296 20.474C14.0419 20.3861 14.2695 20.3408 14.4993 20.3408C14.7292 20.3408 14.9568 20.3861 15.1691 20.474L15.3605 20.0121L15.1691 20.474C15.3814 20.562 15.5744 20.6909 15.7369 20.8535L15.7371 20.8537L17.3286 22.4437L17.6821 22.7969L18.0355 22.4435L22.2775 18.2015L22.631 17.848L22.2776 17.4945L20.6868 15.903L20.6868 15.903C20.3587 15.5748 20.1744 15.1297 20.1744 14.6657C20.1744 14.2017 20.3587 13.7566 20.6868 13.4285L21.1637 12.9516C21.4919 12.6235 21.9369 12.4392 22.401 12.4392C22.865 12.4392 23.31 12.6235 23.6382 12.9515C23.6382 12.9515 23.6382 12.9516 23.6382 12.9516L27.8823 17.195C28.2104 17.5231 28.3947 17.9682 28.3947 18.4322C28.3947 18.8961 28.2105 19.3411 27.8826 19.6692C27.8825 19.6693 27.8824 19.6694 27.8823 19.6695ZM29.6488 15.4284L25.4047 11.1844C25.4046 11.1842 25.4045 11.1841 25.4043 11.184C25.4043 11.1839 25.4043 11.1839 25.4043 11.1839C25.3578 11.1373 25.3102 11.0919 25.2615 11.0477C25.5327 10.8834 25.8459 10.7944 26.1682 10.7944C26.632 10.7944 27.0767 10.9785 27.4049 11.3062L29.5269 13.4283L29.6488 15.4284ZM11.0176 25.5715L15.2617 29.8155L11.1393 27.5714C10.8117 27.2433 10.6277 26.7986 10.6277 26.335C10.6277 26.0126 10.7166 25.6994 10.8809 25.4282C10.9251 25.4769 10.9705 25.5245 11.0172 25.571C11.0173 25.5712 11.0175 25.5713 11.0176 25.5715Z" stroke="white"/>
</svg>
